<?xml version="1.0" standalone="no"?>
<!DOCTYPE svg PUBLIC "-//W3C//DTD SVG 20010904//EN"
 "http://www.w3.org/TR/2001/REC-SVG-20010904/DTD/svg10.dtd">
<svg version="1.0" xmlns="http://www.w3.org/2000/svg"
 width="204.000000pt" height="136.000000pt" viewBox="0 0 204.000000 136.000000"
 preserveAspectRatio="xMidYMid meet">

<g transform="translate(0.000000,136.000000) scale(0.100000,-0.100000)"
fill="#000000" stroke="none">
<path d="M1948 1260 c-101 -89 -268 -157 -453 -185 -67 -11 -234 -19 -505 -25
-351 -8 -418 -12 -505 -30 -183 -39 -318 -126 -383 -248 -18 -33 -32 -65 -32
-71 0 -7 24 6 53 28 167 125 393 173 922 196 247 11 454 44 573 92 35 14 66
22 70 19 10 -10 -70 -85 -123 -116 -52 -30 -105 -49 -190 -69 -102 -25 -132
-30 -220 -41 -303 -37 -407 -54 -510 -81 -131 -34 -229 -71 -241 -91 -5 -8 -2
-9 11 -5 61 24 219 39 505 47 192 6 344 15 390 24 216 41 387 153 536 351 61
81 157 235 151 241 -2 2 -24 -14 -49 -36z"/>
</g>
</svg>
