<svg xmlns="http://www.w3.org/2000/svg" width="204" height="136" viewBox="0 0 204 136" version="1.1"><path d="M 196.500 6.837 C 192.650 10.483, 190.400 12.823, 191.500 12.037 C 192.600 11.251, 195.188 9.030, 197.250 7.101 C 201.327 3.289, 201.826 3.502, 199.474 8.050 C 198.635 9.672, 198.178 11, 198.457 11 C 199.096 11, 204.249 0.909, 203.817 0.505 C 203.643 0.342, 200.350 3.191, 196.500 6.837 M 195 16 C 194.411 17.100, 194.155 18, 194.430 18 C 194.705 18, 195.411 17.100, 196 16 C 196.589 14.900, 196.845 14, 196.570 14 C 196.295 14, 195.589 14.900, 195 16 M 183.441 16.555 C 181.577 18.049, 181.589 18.067, 183.750 17.020 C 184.988 16.420, 186 15.720, 186 15.465 C 186 14.700, 185.481 14.921, 183.441 16.555 M 175 20.500 C 173.625 21.286, 172.950 21.929, 173.500 21.929 C 174.050 21.929, 175.625 21.286, 177 20.500 C 178.375 19.714, 179.050 19.071, 178.500 19.071 C 177.950 19.071, 176.375 19.714, 175 20.500 M 186.703 28.750 C 183.403 33.417, 182.980 34.300, 185.331 31.611 C 188.488 28.003, 192.524 22, 191.795 22 C 191.620 22, 189.329 25.038, 186.703 28.750 M 159.813 25.683 C 160.534 25.972, 161.397 25.936, 161.729 25.604 C 162.061 25.272, 161.471 25.036, 160.417 25.079 C 159.252 25.127, 159.015 25.364, 159.813 25.683 M 154.750 26.662 C 155.438 26.940, 156.563 26.940, 157.250 26.662 C 157.938 26.385, 157.375 26.158, 156 26.158 C 154.625 26.158, 154.063 26.385, 154.750 26.662 M 148.750 27.662 C 149.438 27.940, 150.563 27.940, 151.250 27.662 C 151.938 27.385, 151.375 27.158, 150 27.158 C 148.625 27.158, 148.063 27.385, 148.750 27.662 M 139.750 28.706 C 140.988 28.944, 143.012 28.944, 144.250 28.706 C 145.488 28.467, 144.475 28.272, 142 28.272 C 139.525 28.272, 138.512 28.467, 139.750 28.706 M 120.784 29.738 C 123.689 29.941, 128.189 29.939, 130.784 29.734 C 133.378 29.528, 131 29.363, 125.500 29.365 C 120 29.368, 117.878 29.536, 120.784 29.738 M 67.750 30.723 C 69.537 30.945, 72.463 30.945, 74.250 30.723 C 76.037 30.502, 74.575 30.320, 71 30.320 C 67.425 30.320, 65.963 30.502, 67.750 30.723 M 56.250 31.689 C 57.212 31.941, 58.788 31.941, 59.750 31.689 C 60.712 31.438, 59.925 31.232, 58 31.232 C 56.075 31.232, 55.288 31.438, 56.250 31.689 M 49.750 32.662 C 50.438 32.940, 51.563 32.940, 52.250 32.662 C 52.938 32.385, 52.375 32.158, 51 32.158 C 49.625 32.158, 49.063 32.385, 49.750 32.662 M 165 33.577 L 162.500 35.083 165 34.429 C 166.375 34.070, 167.928 33.376, 168.450 32.888 C 169.977 31.460, 167.786 31.898, 165 33.577 M 44.750 33.662 C 45.438 33.940, 46.563 33.940, 47.250 33.662 C 47.938 33.385, 47.375 33.158, 46 33.158 C 44.625 33.158, 44.063 33.385, 44.750 33.662 M 164.872 36.750 C 163.629 38.336, 163.664 38.371, 165.250 37.128 C 166.916 35.821, 167.445 35, 166.622 35 C 166.415 35, 165.627 35.788, 164.872 36.750 M 174.971 42.541 C 171.412 46.139, 166.137 50.714, 163.250 52.708 C 157.382 56.759, 156.343 58.058, 161.170 55.307 C 164.212 53.573, 183.059 36.113, 181.971 36.037 C 181.680 36.017, 178.530 38.944, 174.971 42.541 M 154.813 37.683 C 155.534 37.972, 156.397 37.936, 156.729 37.604 C 157.061 37.272, 156.471 37.036, 155.417 37.079 C 154.252 37.127, 154.015 37.364, 154.813 37.683 M 28.441 39.555 C 26.611 41.022, 26.643 41.042, 29 39.920 C 32.061 38.462, 32.628 38, 31.358 38 C 30.821 38, 29.509 38.700, 28.441 39.555 M 146.750 39.662 C 147.438 39.940, 148.563 39.940, 149.250 39.662 C 149.938 39.385, 149.375 39.158, 148 39.158 C 146.625 39.158, 146.063 39.385, 146.750 39.662 M 156.044 42.602 C 153.044 44.471, 151.043 46, 151.598 46 C 152.803 46, 162 40.272, 162 39.522 C 162 38.852, 162.378 38.657, 156.044 42.602 M 141.750 40.662 C 142.438 40.940, 143.563 40.940, 144.250 40.662 C 144.938 40.385, 144.375 40.158, 143 40.158 C 141.625 40.158, 141.063 40.385, 141.750 40.662 M 22.306 43.573 L 19.500 46.146 22.750 43.885 C 24.538 42.641, 26 41.484, 26 41.312 C 26 40.523, 24.894 41.200, 22.306 43.573 M 135.269 41.693 C 136.242 41.947, 137.592 41.930, 138.269 41.656 C 138.946 41.382, 138.150 41.175, 136.500 41.195 C 134.850 41.215, 134.296 41.439, 135.269 41.693 M 126.250 42.689 C 127.213 42.941, 128.787 42.941, 129.750 42.689 C 130.713 42.438, 129.925 42.232, 128 42.232 C 126.075 42.232, 125.287 42.438, 126.250 42.689 M 114.264 43.718 C 115.784 43.947, 118.034 43.941, 119.264 43.704 C 120.494 43.467, 119.250 43.279, 116.500 43.286 C 113.750 43.294, 112.744 43.488, 114.264 43.718 M 95.750 44.723 C 97.537 44.945, 100.463 44.945, 102.250 44.723 C 104.037 44.502, 102.575 44.320, 99 44.320 C 95.425 44.320, 93.963 44.502, 95.750 44.723 M 80.264 45.718 C 81.784 45.947, 84.034 45.941, 85.264 45.704 C 86.494 45.467, 85.250 45.279, 82.500 45.286 C 79.750 45.294, 78.744 45.488, 80.264 45.718 M 15.924 48.750 L 13.500 51.500 16.250 49.076 C 18.820 46.810, 19.459 46, 18.674 46 C 18.495 46, 17.258 47.237, 15.924 48.750 M 67.762 46.707 C 69.006 46.946, 70.806 46.937, 71.762 46.687 C 72.718 46.437, 71.700 46.241, 69.500 46.252 C 67.300 46.263, 66.518 46.468, 67.762 46.707 M 59.250 47.689 C 60.212 47.941, 61.788 47.941, 62.750 47.689 C 63.712 47.438, 62.925 47.232, 61 47.232 C 59.075 47.232, 58.288 47.438, 59.250 47.689 M 83 48.059 C 57.609 49.348, 41.407 52.748, 27.648 59.677 C 14.809 66.143, 3.683 79.970, 2.292 91.188 L 1.757 95.500 11.128 86.248 C 16.283 81.159, 22.925 75.368, 25.889 73.377 C 40.924 63.283, 64.133 56.133, 89 53.934 C 120.212 51.174, 128.077 50.022, 130.450 47.864 C 131.550 46.864, 104.355 46.975, 83 48.059 M 52.750 48.662 C 53.438 48.940, 54.563 48.940, 55.250 48.662 C 55.938 48.385, 55.375 48.158, 54 48.158 C 52.625 48.158, 52.063 48.385, 52.750 48.662 M 47.813 49.683 C 48.534 49.972, 49.397 49.936, 49.729 49.604 C 50.061 49.272, 49.471 49.036, 48.417 49.079 C 47.252 49.127, 47.015 49.364, 47.813 49.683 M 42.813 50.683 C 43.534 50.972, 44.397 50.936, 44.729 50.604 C 45.061 50.272, 44.471 50.036, 43.417 50.079 C 42.252 50.127, 42.015 50.364, 42.813 50.683 M 135.813 50.683 C 136.534 50.972, 137.397 50.936, 137.729 50.604 C 138.061 50.272, 137.471 50.036, 136.417 50.079 C 135.252 50.127, 135.015 50.364, 135.813 50.683 M 38.813 51.683 C 39.534 51.972, 40.397 51.936, 40.729 51.604 C 41.061 51.272, 40.471 51.036, 39.417 51.079 C 38.252 51.127, 38.015 51.364, 38.813 51.683 M 130.750 51.662 C 131.438 51.940, 132.563 51.940, 133.250 51.662 C 133.938 51.385, 133.375 51.158, 132 51.158 C 130.625 51.158, 130.063 51.385, 130.750 51.662 M 11.872 53.750 C 10.629 55.336, 10.664 55.371, 12.250 54.128 C 13.916 52.821, 14.445 52, 13.622 52 C 13.415 52, 12.627 52.788, 11.872 53.750 M 125.750 52.662 C 126.438 52.940, 127.563 52.940, 128.250 52.662 C 128.938 52.385, 128.375 52.158, 127 52.158 C 125.625 52.158, 125.063 52.385, 125.750 52.662 M 119.269 53.693 C 120.242 53.947, 121.592 53.930, 122.269 53.656 C 122.946 53.382, 122.150 53.175, 120.500 53.195 C 118.850 53.215, 118.296 53.439, 119.269 53.693 M 112.269 54.693 C 113.242 54.947, 114.592 54.930, 115.269 54.656 C 115.946 54.382, 115.150 54.175, 113.500 54.195 C 111.850 54.215, 111.296 54.439, 112.269 54.693 M 21.750 57.566 C 19.137 58.926, 17 60.262, 17 60.536 C 17 60.982, 26.900 56.306, 27.917 55.380 C 29.155 54.251, 25.901 55.405, 21.750 57.566 M 104.269 55.693 C 105.242 55.947, 106.592 55.930, 107.269 55.656 C 107.946 55.382, 107.150 55.175, 105.500 55.195 C 103.850 55.215, 103.296 55.439, 104.269 55.693 M 8.500 59 C 7.647 60.650, 7.174 62, 7.449 62 C 7.724 62, 8.647 60.650, 9.500 59 C 10.353 57.350, 10.826 56, 10.551 56 C 10.276 56, 9.353 57.350, 8.500 59 M 96.269 56.693 C 97.242 56.947, 98.592 56.930, 99.269 56.656 C 99.946 56.382, 99.150 56.175, 97.500 56.195 C 95.850 56.215, 95.296 56.439, 96.269 56.693 M 88.750 57.662 C 89.438 57.940, 90.563 57.940, 91.250 57.662 C 91.938 57.385, 91.375 57.158, 90 57.158 C 88.625 57.158, 88.063 57.385, 88.750 57.662 M 152 59.500 C 149.525 60.825, 147.855 61.930, 148.290 61.955 C 149.352 62.016, 157 58.086, 157 57.480 C 157 56.817, 157.041 56.800, 152 59.500 M 81.750 58.662 C 82.438 58.940, 83.563 58.940, 84.250 58.662 C 84.938 58.385, 84.375 58.158, 83 58.158 C 81.625 58.158, 81.063 58.385, 81.750 58.662 M 76.813 59.683 C 77.534 59.972, 78.397 59.936, 78.729 59.604 C 79.061 59.272, 78.471 59.036, 77.417 59.079 C 76.252 59.127, 76.015 59.364, 76.813 59.683 M 71.813 60.683 C 72.534 60.972, 73.397 60.936, 73.729 60.604 C 74.061 60.272, 73.471 60.036, 72.417 60.079 C 71.252 60.127, 71.015 60.364, 71.813 60.683 M 66.813 61.683 C 67.534 61.972, 68.397 61.936, 68.729 61.604 C 69.061 61.272, 68.471 61.036, 67.417 61.079 C 66.252 61.127, 66.015 61.364, 66.813 61.683 M 62.813 62.683 C 63.534 62.972, 64.397 62.936, 64.729 62.604 C 65.061 62.272, 64.471 62.036, 63.417 62.079 C 62.252 62.127, 62.015 62.364, 62.813 62.683 M 144 63 C 143.175 63.533, 142.950 63.969, 143.500 63.969 C 144.050 63.969, 145.175 63.533, 146 63 C 146.825 62.467, 147.050 62.031, 146.500 62.031 C 145.950 62.031, 144.825 62.467, 144 63 M 9.437 66.250 L 6.500 69.500 9.750 66.563 C 11.538 64.948, 13 63.485, 13 63.313 C 13 62.540, 12.175 63.221, 9.437 66.250 M 136.813 65.683 C 137.534 65.972, 138.397 65.936, 138.729 65.604 C 139.061 65.272, 138.471 65.036, 137.417 65.079 C 136.252 65.127, 136.015 65.364, 136.813 65.683 M 4.607 67.582 C 3.789 69.714, 3.843 71, 4.750 70.999 C 5.162 70.999, 5.565 69.874, 5.644 68.499 C 5.810 65.622, 5.473 65.324, 4.607 67.582 M 48 67 C 47.175 67.533, 46.950 67.969, 47.500 67.969 C 48.050 67.969, 49.175 67.533, 50 67 C 50.825 66.467, 51.050 66.031, 50.500 66.031 C 49.950 66.031, 48.825 66.467, 48 67 M 131.813 66.683 C 132.534 66.972, 133.397 66.936, 133.729 66.604 C 134.061 66.272, 133.471 66.036, 132.417 66.079 C 131.252 66.127, 131.015 66.364, 131.813 66.683 M 125.750 67.662 C 126.438 67.940, 127.563 67.940, 128.250 67.662 C 128.938 67.385, 128.375 67.158, 127 67.158 C 125.625 67.158, 125.063 67.385, 125.750 67.662 M 43 69 C 42.175 69.533, 41.950 69.969, 42.500 69.969 C 43.050 69.969, 44.175 69.533, 45 69 C 45.825 68.467, 46.050 68.031, 45.500 68.031 C 44.950 68.031, 43.825 68.467, 43 69 M 115.750 68.706 C 116.987 68.944, 119.013 68.944, 120.250 68.706 C 121.487 68.467, 120.475 68.272, 118 68.272 C 115.525 68.272, 114.513 68.467, 115.750 68.706 M 75.250 69.746 C 80.612 69.925, 89.388 69.925, 94.750 69.746 C 100.112 69.566, 95.725 69.419, 85 69.419 C 74.275 69.419, 69.888 69.566, 75.250 69.746 M 57.250 70.689 C 58.212 70.941, 59.788 70.941, 60.750 70.689 C 61.712 70.438, 60.925 70.232, 59 70.232 C 57.075 70.232, 56.288 70.438, 57.250 70.689 M 50.750 71.662 C 51.438 71.940, 52.563 71.940, 53.250 71.662 C 53.938 71.385, 53.375 71.158, 52 71.158 C 50.625 71.158, 50.063 71.385, 50.750 71.662 M 45.813 72.683 C 46.534 72.972, 47.397 72.936, 47.729 72.604 C 48.061 72.272, 47.471 72.036, 46.417 72.079 C 45.252 72.127, 45.015 72.364, 45.813 72.683 M 30.732 75.536 C 28.679 76.931, 27 78.254, 27 78.475 C 27 78.697, 29.129 78.153, 31.731 77.266 C 34.334 76.380, 35.906 75.469, 35.225 75.242 C 34.544 75.015, 34.242 74.418, 34.553 73.915 C 35.418 72.514, 34.782 72.784, 30.732 75.536 M 41.813 73.683 C 42.534 73.972, 43.397 73.936, 43.729 73.604 C 44.061 73.272, 43.471 73.036, 42.417 73.079 C 41.252 73.127, 41.015 73.364, 41.813 73.683 M 37.813 74.683 C 38.534 74.972, 39.397 74.936, 39.729 74.604 C 40.061 74.272, 39.471 74.036, 38.417 74.079 C 37.252 74.127, 37.015 74.364, 37.813 74.683" stroke="none" fill="#e4c165" fill-rule="evenodd"/><path d="M 198.437 6.105 C 191.863 13.054, 178.881 20.470, 167.214 23.939 C 151.956 28.477, 145.083 29.137, 104 30.008 C 54.636 31.055, 45.123 32.293, 30.142 39.618 C 18.549 45.287, 8.757 56.560, 5.490 68 C 4.831 70.304, 5.078 70.211, 8.638 66.813 C 23.728 52.405, 45.536 47.104, 102.500 43.994 C 134.013 42.274, 154.294 38.952, 164.234 33.881 C 166.412 32.769, 168.417 32.084, 168.691 32.357 C 168.964 32.631, 167.008 34.943, 164.344 37.495 C 154.356 47.065, 141.047 51.166, 104.500 55.934 C 91.300 57.656, 75.325 60.215, 69 61.621 C 57.122 64.260, 39.761 70.484, 34.500 73.988 C 31.196 76.189, 31.504 76.519, 35.459 75.016 C 36.883 74.474, 42.425 73.098, 47.774 71.957 C 55.789 70.247, 63.304 69.726, 90.500 68.994 C 116.815 68.285, 125.336 67.713, 132.564 66.169 C 155.358 61.299, 174.219 47.432, 189.867 24.038 C 195.438 15.709, 202.587 3, 201.701 3 C 201.521 3, 200.052 4.397, 198.437 6.105" stroke="none" fill="#176ba7" fill-rule="evenodd"/></svg>