<svg xmlns="http://www.w3.org/2000/svg" viewBox="0 0 50 50" id="wifi"><path d="M11.016 21.884c3.554-4.068 8.747-6.401 14.247-6.401 5.501 0 10.694 2.334 14.247 6.402a.995.995 0 0 0 1.41.096 1 1 0 0 0 .096-1.41c-3.933-4.505-9.674-7.088-15.753-7.088-6.078 0-11.819 2.582-15.753 7.085a1 1 0 0 0 1.506 1.316z"></path><path d="M35.367 25.849a.996.996 0 0 0 1.406.144 1 1 0 0 0 .145-1.406c-2.84-3.491-7.089-5.493-11.655-5.493-4.565 0-8.813 2.002-11.655 5.491a1 1 0 1 0 1.551 1.263c2.46-3.021 6.144-4.755 10.104-4.755 3.962.001 7.645 1.734 10.104 4.756z"></path><path d="M31.124 29.723a1.002 1.002 0 0 0 1.641-1.145c-1.693-2.426-4.497-3.874-7.502-3.874-3.05 0-5.877 1.482-7.564 3.964a1.001 1.001 0 0 0 1.655 1.125c1.314-1.935 3.523-3.089 5.91-3.089 2.35 0 4.542 1.129 5.86 3.019z"></path><ellipse cx="25.263" cy="33.514" rx="2" ry="1.969"></ellipse></svg>